<svg width="170" height="55" viewBox="0 0 170 55" fill="none" xmlns="http://www.w3.org/2000/svg">
<g filter="url(#filter0_b_469_4649)">
<rect width="170" height="55" rx="10" fill="white" fill-opacity="0.4"/>
<path d="M60.7436 15.0557C60.7436 16.0716 60.4873 16.9605 59.8465 17.5954C59.0776 18.3573 58.1806 18.7383 57.0273 18.7383C55.8739 18.7383 54.9769 18.3573 54.208 17.5954C53.4391 16.8335 53.0547 15.9446 53.0547 14.8017C53.0547 13.6589 53.4391 12.77 54.208 12.0081C54.9769 11.2462 55.8739 10.8652 57.0273 10.8652C57.5399 10.8652 58.0525 10.9922 58.5651 11.2462C59.0776 11.5002 59.4621 11.7541 59.7184 12.1351L59.0776 12.77C58.5651 12.1351 57.9243 11.8811 57.0273 11.8811C56.2584 11.8811 55.4895 12.1351 54.9769 12.77C54.3362 13.2779 54.0799 14.0398 54.0799 14.9287C54.0799 15.8176 54.3362 16.5795 54.9769 17.0875C55.6177 17.5954 56.2584 17.9763 57.0273 17.9763C57.9243 17.9763 58.5651 17.7224 59.2058 17.0875C59.5902 16.7065 59.8465 16.1986 59.8465 15.5636H57.0273V14.5478H60.7436V15.0557ZM66.6384 11.8811H63.1784V14.2938H66.3821V15.1827H63.1784V17.5954H66.6384V18.6113H62.1532V10.9922H66.6384V11.8811ZM70.8673 18.6113H69.8421V11.8811H67.6636V10.9922H73.0458V11.8811H70.8673V18.6113ZM76.7621 18.6113V10.9922H77.7873V18.6113H76.7621ZM82.1443 18.6113H81.1191V11.8811H78.9406V10.9922H84.1947V11.8811H82.0162V18.6113H82.1443ZM94.3184 17.5954C93.5495 18.3573 92.6525 18.7383 91.4991 18.7383C90.3458 18.7383 89.4488 18.3573 88.6799 17.5954C87.911 16.8335 87.5265 15.9446 87.5265 14.8017C87.5265 13.6589 87.911 12.77 88.6799 12.0081C89.4488 11.2462 90.3458 10.8652 91.4991 10.8652C92.6525 10.8652 93.5495 11.2462 94.3184 12.0081C95.0873 12.77 95.4717 13.6589 95.4717 14.8017C95.4717 15.9446 95.0873 16.8335 94.3184 17.5954ZM89.4488 16.9605C89.9614 17.4684 90.7302 17.8494 91.4991 17.8494C92.268 17.8494 93.0369 17.5954 93.5495 16.9605C94.0621 16.4525 94.4465 15.6906 94.4465 14.8017C94.4465 13.9129 94.1902 13.1509 93.5495 12.643C93.0369 12.1351 92.268 11.7541 91.4991 11.7541C90.7302 11.7541 89.9614 12.0081 89.4488 12.643C88.9362 13.1509 88.5517 13.9129 88.5517 14.8017C88.5517 15.6906 88.808 16.4525 89.4488 16.9605ZM96.8813 18.6113V10.9922H98.0347L101.751 16.9605V10.9922H102.776V18.6113H101.751L97.7784 12.389V18.6113H96.8813Z" fill="#2D2D2D"/>
<path d="M87.268 29.7856C84.1924 29.7856 81.7576 32.0714 81.7576 35.246C81.7576 38.2936 84.1924 40.7063 87.268 40.7063C90.3435 40.7063 92.7783 38.4206 92.7783 35.246C92.7783 31.9444 90.3435 29.7856 87.268 29.7856ZM87.268 38.4206C85.602 38.4206 84.1924 37.0237 84.1924 35.119C84.1924 33.2142 85.602 31.8174 87.268 31.8174C88.9339 31.8174 90.3435 33.0872 90.3435 35.119C90.3435 37.0237 88.9339 38.4206 87.268 38.4206ZM75.3502 29.7856C72.2746 29.7856 69.8398 32.0714 69.8398 35.246C69.8398 38.2936 72.2746 40.7063 75.3502 40.7063C78.4257 40.7063 80.8606 38.4206 80.8606 35.246C80.8606 31.9444 78.4257 29.7856 75.3502 29.7856ZM75.3502 38.4206C73.6843 38.4206 72.2746 37.0237 72.2746 35.119C72.2746 33.2142 73.6843 31.8174 75.3502 31.8174C77.0161 31.8174 78.4258 33.0872 78.4258 35.119C78.4258 37.0237 77.0161 38.4206 75.3502 38.4206ZM61.1257 31.4364V33.7221H66.6361C66.508 34.992 65.9954 36.0079 65.3546 36.6428C64.5857 37.4047 63.3043 38.2936 61.1257 38.2936C57.6657 38.2936 55.1028 35.6269 55.1028 32.1983C55.1028 28.7698 57.7939 26.1031 61.1257 26.1031C62.9198 26.1031 64.3295 26.865 65.3546 27.7539L67.0206 26.1031C65.6109 24.8333 63.8169 23.8174 61.2539 23.8174C56.6406 23.8174 52.668 27.6269 52.668 32.1983C52.668 36.7698 56.6406 40.5793 61.2539 40.5793C63.8169 40.5793 65.6109 39.8174 67.1487 38.1666C68.6865 36.6428 69.1991 34.484 69.1991 32.8333C69.1991 32.3253 69.1991 31.8174 69.0709 31.4364H61.1257ZM119.305 33.2142C118.792 31.9444 117.511 29.7856 114.692 29.7856C111.872 29.7856 109.566 31.9444 109.566 35.246C109.566 38.2936 111.872 40.7063 114.948 40.7063C117.383 40.7063 118.921 39.1825 119.433 38.2936L117.639 37.0237C116.998 37.9126 116.229 38.5475 114.948 38.5475C113.666 38.5475 112.898 38.0396 112.257 36.8967L119.561 33.8491L119.305 33.2142ZM111.872 34.992C111.872 32.9602 113.538 31.8174 114.692 31.8174C115.589 31.8174 116.486 32.3253 116.742 32.9602L111.872 34.992ZM105.849 40.1983H108.284V24.3253H105.849V40.1983ZM102.005 30.9285C101.364 30.2936 100.339 29.6587 99.0576 29.6587C96.3665 29.6587 93.8035 32.0714 93.8035 35.119C93.8035 38.1666 96.2383 40.4523 99.0576 40.4523C100.339 40.4523 101.364 39.8174 101.877 39.1825H102.005V39.9444C102.005 41.9761 100.852 43.119 99.0576 43.119C97.648 43.119 96.6228 42.1031 96.3665 41.2142L94.3161 42.1031C94.9569 43.4999 96.4946 45.2777 99.1858 45.2777C102.005 45.2777 104.312 43.6269 104.312 39.6904V30.0396H102.005V30.9285ZM99.1858 38.4206C97.5198 38.4206 96.1102 37.0237 96.1102 35.119C96.1102 33.2142 97.5198 31.8174 99.1858 31.8174C100.852 31.8174 102.133 33.2142 102.133 35.119C102.133 37.0237 100.852 38.4206 99.1858 38.4206ZM130.454 24.3253H124.687V40.1983H127.122V34.2301H130.454C133.145 34.2301 135.708 32.3253 135.708 29.2777C135.708 26.2301 133.145 24.3253 130.454 24.3253ZM130.582 31.9444H127.122V26.484H130.582C132.376 26.484 133.401 28.0079 133.401 29.1507C133.273 30.5475 132.248 31.9444 130.582 31.9444ZM145.319 29.6587C143.525 29.6587 141.731 30.4206 141.09 32.0714L143.269 32.9602C143.781 32.0713 144.55 31.8174 145.447 31.8174C146.729 31.8174 147.882 32.5793 148.01 33.8491V33.9761C147.626 33.7221 146.601 33.3412 145.575 33.3412C143.269 33.3412 140.962 34.611 140.962 36.8967C140.962 39.0555 142.884 40.4523 144.935 40.4523C146.601 40.4523 147.369 39.6904 148.01 38.9285H148.138V40.1983H150.445V34.1031C150.189 31.3094 148.01 29.6587 145.319 29.6587ZM145.063 38.4206C144.294 38.4206 143.141 38.0396 143.141 37.0237C143.141 35.7539 144.55 35.3729 145.704 35.3729C146.729 35.3729 147.241 35.6269 147.882 35.8809C147.626 37.4047 146.344 38.4206 145.063 38.4206ZM158.518 30.0396L155.827 36.8967H155.699L152.88 30.0396H150.317L154.546 39.6904L152.111 45.0237H154.546L161.081 30.0396H158.518ZM136.989 40.1983H139.424V24.3253H136.989V40.1983Z" fill="#2D2D2D"/>
<path d="M13.3251 11.627C12.9406 12.0079 12.8125 12.6428 12.8125 13.4047V41.4682C12.8125 42.2301 13.0688 42.865 13.4532 43.246L13.5814 43.373L29.4718 27.627V27.373L13.3251 11.627Z" fill="url(#paint0_linear_469_4649)"/>
<path d="M34.5978 32.9602L29.3438 27.7538V27.3729L34.5978 22.1665L34.726 22.2935L41.0052 25.849C42.7993 26.8649 42.7993 28.5157 41.0052 29.5316L34.5978 32.9602Z" fill="url(#paint1_linear_469_4649)"/>
<path d="M34.725 32.8333L29.3427 27.5L13.3242 43.373C13.965 44.0079 14.862 44.0079 16.0153 43.5L34.725 32.8333Z" fill="url(#paint2_linear_469_4649)"/>
<path d="M34.725 22.1666L16.0153 11.6269C14.862 10.992 13.965 11.119 13.3242 11.7539L29.3427 27.4999L34.725 22.1666Z" fill="url(#paint3_linear_469_4649)"/>
<path opacity="0.2" d="M34.5968 32.7061L16.0153 43.1188C14.9901 43.7537 14.0931 43.6267 13.4524 43.1188L13.3242 43.2457L13.4524 43.3727C14.0931 43.8807 14.9901 44.0076 16.0153 43.3727L34.5968 32.7061Z" fill="#2D2D2D"/>
<path opacity="0.12" d="M13.3251 43.119C12.9406 42.7381 12.8125 42.1032 12.8125 41.3413V41.4683C12.8125 42.2302 13.0688 42.8651 13.4532 43.246V43.119H13.3251ZM41.0051 29.1508L34.5977 32.7063L34.7258 32.8333L41.0051 29.2778C41.9021 28.7698 42.2866 28.1349 42.2866 27.5C42.2866 28.1349 41.774 28.6429 41.0051 29.1508Z" fill="#2D2D2D"/>
<path opacity="0.25" d="M16.0162 11.7537L41.0051 25.8489C41.774 26.3569 42.2866 26.8648 42.2866 27.4997C42.2866 26.8648 41.9021 26.2299 41.0051 25.722L16.0162 11.6267C14.2221 10.6108 12.8125 11.3728 12.8125 13.4045V13.5315C12.8125 11.6267 14.2221 10.7378 16.0162 11.7537Z" fill="white"/>
</g>
<defs>
<filter id="filter0_b_469_4649" x="-5.484" y="-5.484" width="180.968" height="65.968" filterUnits="userSpaceOnUse" color-interpolation-filters="sRGB">
<feFlood flood-opacity="0" result="BackgroundImageFix"/>
<feGaussianBlur in="BackgroundImageFix" stdDeviation="2.742"/>
<feComposite in2="SourceAlpha" operator="in" result="effect1_backgroundBlur_469_4649"/>
<feBlend mode="normal" in="SourceGraphic" in2="effect1_backgroundBlur_469_4649" result="shape"/>
</filter>
<linearGradient id="paint0_linear_469_4649" x1="27.934" y1="13.1635" x2="6.62311" y2="34.6684" gradientUnits="userSpaceOnUse">
<stop stop-color="#00A0FF"/>
<stop offset="0.007" stop-color="#00A1FF"/>
<stop offset="0.26" stop-color="#00BEFF"/>
<stop offset="0.512" stop-color="#00D2FF"/>
<stop offset="0.76" stop-color="#00DFFF"/>
<stop offset="1" stop-color="#00E3FF"/>
</linearGradient>
<linearGradient id="paint1_linear_469_4649" x1="43.3555" y1="27.5011" x2="12.3475" y2="27.5011" gradientUnits="userSpaceOnUse">
<stop stop-color="#FFE000"/>
<stop offset="0.409" stop-color="#FFBD00"/>
<stop offset="0.775" stop-color="#FFA500"/>
<stop offset="1" stop-color="#FF9C00"/>
</linearGradient>
<linearGradient id="paint2_linear_469_4649" x1="31.8122" y1="30.4156" x2="2.91431" y2="59.5783" gradientUnits="userSpaceOnUse">
<stop stop-color="#FF3A44"/>
<stop offset="1" stop-color="#C31162"/>
</linearGradient>
<linearGradient id="paint3_linear_469_4649" x1="9.34778" y1="2.32658" x2="22.2526" y2="15.3497" gradientUnits="userSpaceOnUse">
<stop stop-color="#32A071"/>
<stop offset="0.069" stop-color="#2DA771"/>
<stop offset="0.476" stop-color="#15CF74"/>
<stop offset="0.801" stop-color="#06E775"/>
<stop offset="1" stop-color="#00F076"/>
</linearGradient>
</defs>
</svg>
