<svg width="170" height="55" viewBox="0 0 170 55" fill="none" xmlns="http://www.w3.org/2000/svg">
<rect width="170" height="55" rx="10" fill="white" fill-opacity="0.4"/>
<path d="M55.5506 35.6181H50.1106L48.8042 39.4981H46.5L51.6527 25.1426H54.0467L59.1993 39.4981H56.8558L55.5506 35.6181ZM50.674 33.8277H54.9861L52.8604 27.5302H52.8009L50.674 33.8277Z" fill="#2D2D2D"/>
<path d="M70.3249 34.2659C70.3249 37.5183 68.5942 39.6079 65.9825 39.6079C65.3209 39.6427 64.663 39.4894 64.084 39.1655C63.505 38.8417 63.0283 38.3604 62.7086 37.7768H62.6592V42.9606H60.5234V29.0318H62.5908V30.7726H62.6301C62.9645 30.1918 63.4492 29.713 64.0326 29.3871C64.616 29.0613 65.2763 28.9007 65.9433 28.9223C68.5841 28.9223 70.3249 31.0221 70.3249 34.2659ZM68.1296 34.2659C68.1296 32.1465 67.0409 30.7534 65.3798 30.7534C63.7479 30.7534 62.6503 32.1758 62.6503 34.2659C62.6503 36.3747 63.7479 37.787 65.3798 37.787C67.0409 37.787 68.1296 36.4041 68.1296 34.2659Z" fill="#2D2D2D"/>
<path d="M81.7781 34.2659C81.7781 37.5183 80.0474 39.6079 77.4357 39.6079C76.7741 39.6427 76.1161 39.4894 75.5371 39.1655C74.9581 38.8417 74.4815 38.3604 74.1618 37.7768H74.1124V42.9606H71.9766V29.0318H74.0439V30.7726H74.0832C74.4176 30.1918 74.9023 29.713 75.4857 29.3871C76.0691 29.0613 76.7294 28.9007 77.3964 28.9223C80.0373 28.9223 81.7781 31.0221 81.7781 34.2659ZM79.5827 34.2659C79.5827 32.1465 78.4941 30.7534 76.833 30.7534C75.2011 30.7534 74.1034 32.1758 74.1034 34.2659C74.1034 36.3747 75.2011 37.787 76.833 37.787C78.4941 37.787 79.5827 36.4041 79.5827 34.2659Z" fill="#2D2D2D"/>
<path d="M89.3504 35.4986C89.5087 36.9221 90.8836 37.8568 92.7624 37.8568C94.5626 37.8568 95.8578 36.9221 95.8578 35.6385C95.8578 34.5243 95.0766 33.8571 93.227 33.3999L91.3774 32.9512C88.7567 32.3145 87.5401 31.0817 87.5401 29.0814C87.5401 26.6046 89.686 24.9033 92.7332 24.9033C95.7489 24.9033 97.8163 26.6046 97.8859 29.0814H95.7298C95.6008 27.6488 94.4234 26.7841 92.7029 26.7841C90.9823 26.7841 89.8049 27.659 89.8049 28.9323C89.8049 29.9472 90.5569 30.5444 92.3965 31.0016L93.9689 31.3899C96.8971 32.0864 98.1137 33.2695 98.1137 35.3698C98.1137 38.0554 95.9868 39.7375 92.6041 39.7375C89.4391 39.7375 87.3021 38.0949 87.1641 35.4985L89.3504 35.4986Z" fill="#2D2D2D"/>
<path d="M102.721 26.5552V29.032H104.7V30.7332H102.721V36.5035C102.721 37.3999 103.118 37.8176 103.987 37.8176C104.222 37.8134 104.457 37.7969 104.69 37.7679V39.4589C104.299 39.5324 103.901 39.5657 103.504 39.5583C101.397 39.5583 100.575 38.7624 100.575 36.7327V30.7332H99.0625V29.0319H100.575V26.5552H102.721Z" fill="#2D2D2D"/>
<path d="M105.844 34.2661C105.844 30.9726 107.772 28.9033 110.779 28.9033C113.796 28.9033 115.715 30.9725 115.715 34.2661C115.715 37.5681 113.806 39.6283 110.779 39.6283C107.753 39.6283 105.844 37.5681 105.844 34.2661ZM113.539 34.2661C113.539 32.0066 112.509 30.6734 110.779 30.6734C109.048 30.6734 108.019 32.0168 108.019 34.2661C108.019 36.5341 109.048 37.8571 110.779 37.8571C112.509 37.8571 113.539 36.5341 113.539 34.2661Z" fill="#2D2D2D"/>
<path d="M117.477 29.0317H119.514V30.8131H119.563C119.701 30.2568 120.025 29.7651 120.481 29.4207C120.936 29.0764 121.496 28.9004 122.066 28.9222C122.312 28.9214 122.557 28.9483 122.798 29.0024V31.0118C122.487 30.9163 122.163 30.8725 121.838 30.882C121.528 30.8693 121.218 30.9244 120.931 31.0433C120.644 31.1622 120.386 31.3423 120.175 31.571C119.963 31.7998 119.803 32.0718 119.706 32.3685C119.609 32.6653 119.577 32.9796 119.612 33.2899V39.4983H117.477V29.0317Z" fill="#2D2D2D"/>
<path d="M132.644 36.4246C132.357 38.3245 130.517 39.6283 128.164 39.6283C125.137 39.6283 123.258 37.5884 123.258 34.3158C123.258 31.0324 125.147 28.9033 128.074 28.9033C130.953 28.9033 132.763 30.8924 132.763 34.0663V34.8023H125.414V34.9322C125.38 35.3173 125.428 35.7054 125.555 36.0705C125.681 36.4356 125.884 36.7694 126.148 37.0498C126.413 37.3302 126.734 37.5507 127.09 37.6967C127.446 37.8427 127.829 37.9109 128.213 37.8966C128.718 37.9442 129.224 37.8266 129.657 37.5614C130.09 37.2962 130.426 36.8974 130.616 36.4245L132.644 36.4246ZM125.424 33.3003H130.626C130.645 32.954 130.593 32.6074 130.473 32.2824C130.352 31.9573 130.167 31.6607 129.927 31.4113C129.687 31.1619 129.399 30.965 129.08 30.833C128.761 30.7009 128.419 30.6366 128.074 30.6441C127.726 30.642 127.381 30.7092 127.059 30.8418C126.738 30.9745 126.445 31.1699 126.199 31.4169C125.952 31.6638 125.757 31.9574 125.624 32.2807C125.491 32.604 125.423 32.9505 125.424 33.3003Z" fill="#2D2D2D"/>
<path d="M48.977 14.3399C49.4248 14.3075 49.8741 14.3756 50.2926 14.5391C50.7111 14.7026 51.0882 14.9574 51.3969 15.2853C51.7056 15.6132 51.9381 16.0059 52.0776 16.435C52.2171 16.8642 52.2602 17.3192 52.2038 17.7672C52.2038 19.9708 51.0197 21.2374 48.977 21.2374H46.5V14.3399H48.977ZM47.5651 20.262H48.858C49.178 20.2812 49.4982 20.2284 49.7953 20.1075C50.0925 19.9866 50.3591 19.8005 50.5757 19.5629C50.7923 19.3253 50.9536 19.042 51.0476 18.7338C51.1417 18.4256 51.1663 18.1002 51.1196 17.7812C51.1629 17.4635 51.1358 17.1401 51.0403 16.8342C50.9448 16.5282 50.7832 16.2473 50.567 16.0116C50.3509 15.7758 50.0856 15.5911 49.7901 15.4706C49.4947 15.3501 49.1764 15.2968 48.858 15.3146H47.5651V20.262Z" fill="#2D2D2D"/>
<path d="M53.4061 18.6325C53.3735 18.2904 53.4124 17.9452 53.5203 17.6192C53.6281 17.2931 53.8026 16.9933 54.0323 16.739C54.2621 16.4847 54.5422 16.2815 54.8547 16.1425C55.1671 16.0035 55.505 15.9316 55.8466 15.9316C56.1883 15.9316 56.5261 16.0035 56.8386 16.1425C57.151 16.2815 57.4311 16.4847 57.6609 16.739C57.8907 16.9933 58.0651 17.2931 58.1729 17.6192C58.2808 17.9452 58.3197 18.2904 58.2872 18.6325C58.3203 18.9749 58.2819 19.3205 58.1743 19.6471C58.0667 19.9737 57.8924 20.274 57.6626 20.5288C57.4327 20.7836 57.1524 20.9872 56.8397 21.1266C56.5269 21.2659 56.1887 21.3379 55.8466 21.3379C55.5046 21.3379 55.1663 21.2659 54.8535 21.1266C54.5408 20.9872 54.2605 20.7836 54.0306 20.5288C53.8008 20.274 53.6265 19.9737 53.5189 19.6471C53.4114 19.3205 53.3729 18.9749 53.4061 18.6325ZM57.2366 18.6325C57.2366 17.5041 56.7327 16.8443 55.8483 16.8443C54.9605 16.8443 54.4611 17.5041 54.4611 18.6325C54.4611 19.7698 54.9606 20.4246 55.8483 20.4246C56.7327 20.4246 57.2366 19.7653 57.2366 18.6325Z" fill="#2D2D2D"/>
<path d="M64.7782 21.2375H63.7188L62.6492 17.4038H62.5684L61.5032 21.2375H60.4538L59.0273 16.0322H60.0633L60.9903 20.0042H61.0667L62.1306 16.0322H63.1105L64.1744 20.0042H64.2552L65.1778 16.0322H66.1991L64.7782 21.2375Z" fill="#2D2D2D"/>
<path d="M67.3984 16.0319H68.3816V16.8588H68.4579C68.5874 16.5618 68.8058 16.3128 69.0826 16.1466C69.3594 15.9803 69.6809 15.9051 70.0023 15.9314C70.2541 15.9124 70.5069 15.9505 70.7421 16.0431C70.9772 16.1357 71.1886 16.2803 71.3607 16.4663C71.5327 16.6522 71.6609 16.8747 71.7359 17.1172C71.8108 17.3598 71.8305 17.6162 71.7935 17.8674V21.2371H70.7722V18.1254C70.7722 17.2889 70.4108 16.8729 69.6555 16.8729C69.4845 16.8649 69.3138 16.8942 69.1552 16.9587C68.9965 17.0232 68.8536 17.1215 68.7362 17.2468C68.6189 17.3721 68.5298 17.5214 68.4752 17.6846C68.4206 17.8477 68.4017 18.0208 68.4198 18.192V21.2372H67.3984L67.3984 16.0319Z" fill="#2D2D2D"/>
<path d="M73.4219 14H74.4432V21.2373H73.4219V14Z" fill="#2D2D2D"/>
<path d="M75.8631 18.6325C75.8306 18.2904 75.8695 17.9452 75.9773 17.6192C76.0852 17.2931 76.2596 16.9933 76.4894 16.739C76.7192 16.4847 76.9993 16.2815 77.3117 16.1425C77.6241 16.0035 77.962 15.9316 78.3037 15.9316C78.6453 15.9316 78.9832 16.0035 79.2956 16.1425C79.608 16.2815 79.8881 16.4847 80.1179 16.739C80.3477 16.9933 80.5221 17.2931 80.63 17.6192C80.7378 17.9452 80.7767 18.2904 80.7442 18.6325C80.7773 18.9749 80.7389 19.3205 80.6313 19.6471C80.5238 19.9737 80.3495 20.274 80.1196 20.5288C79.8898 20.7836 79.6095 20.9872 79.2967 21.1266C78.984 21.2659 78.6457 21.3379 78.3037 21.3379C77.9616 21.3379 77.6233 21.2659 77.3106 21.1266C76.9978 20.9872 76.7175 20.7836 76.4877 20.5288C76.2578 20.274 76.0835 19.9737 75.976 19.6471C75.8684 19.3205 75.83 18.9749 75.8631 18.6325ZM79.6937 18.6325C79.6937 17.5041 79.1897 16.8443 78.3053 16.8443C77.4176 16.8443 76.9182 17.5041 76.9182 18.6325C76.9182 19.7698 77.4176 20.4246 78.3053 20.4246C79.1897 20.4246 79.6937 19.7653 79.6937 18.6325Z" fill="#2D2D2D"/>
<path d="M81.8164 19.7653C81.8164 18.8284 82.51 18.2882 83.7412 18.2114L85.143 18.1302V17.6809C85.143 17.1311 84.7816 16.8206 84.0835 16.8206C83.5134 16.8206 83.1183 17.0312 83.005 17.3992H82.0162C82.1206 16.5051 82.9567 15.9316 84.1307 15.9316C85.4281 15.9316 86.1599 16.5813 86.1599 17.6809V21.2374H85.1767V20.5059H85.0959C84.9319 20.7683 84.7016 20.9822 84.4285 21.1258C84.1554 21.2694 83.8493 21.3375 83.5415 21.3232C83.3242 21.3459 83.1046 21.3226 82.8969 21.2548C82.6891 21.1869 82.4978 21.076 82.3353 20.9292C82.1728 20.7825 82.0426 20.6031 81.9533 20.4026C81.8639 20.2021 81.8173 19.985 81.8164 19.7653ZM85.143 19.3206V18.8854L83.8793 18.9667C83.1666 19.0146 82.8433 19.2585 82.8433 19.7174C82.8433 20.1858 83.2474 20.4585 83.803 20.4585C83.9658 20.4751 84.1302 20.4585 84.2865 20.4099C84.4428 20.3612 84.5878 20.2814 84.7129 20.1753C84.8379 20.0691 84.9404 19.9387 85.0143 19.7919C85.0882 19.645 85.132 19.4848 85.143 19.3206Z" fill="#2D2D2D"/>
<path d="M87.5 18.6324C87.5 16.9876 88.3406 15.9457 89.6482 15.9457C89.9716 15.9307 90.2926 16.0086 90.5736 16.1703C90.8546 16.332 91.0841 16.5709 91.2352 16.8589H91.3115V14H92.3328V21.2373H91.3541V20.4149H91.2733C91.1106 20.701 90.8731 20.9369 90.5867 21.097C90.3002 21.257 89.9757 21.3352 89.6482 21.3231C88.3317 21.3232 87.5 20.2812 87.5 18.6324ZM88.555 18.6324C88.555 19.7365 89.0725 20.4008 89.9378 20.4008C90.7986 20.4008 91.3306 19.7269 91.3306 18.6369C91.3306 17.5521 90.793 16.8685 89.9378 16.8685C89.078 16.8685 88.555 17.5374 88.555 18.6324Z" fill="#2D2D2D"/>
<path d="M96.5584 18.6326C96.5259 18.2905 96.5648 17.9453 96.6727 17.6192C96.7806 17.2931 96.955 16.9933 97.1848 16.739C97.4146 16.4847 97.6947 16.2815 98.0072 16.1425C98.3197 16.0035 98.6575 15.9316 98.9992 15.9316C99.3409 15.9316 99.6788 16.0035 99.9912 16.1425C100.304 16.2815 100.584 16.4847 100.814 16.739C101.043 16.9933 101.218 17.2931 101.326 17.6192C101.434 17.9453 101.473 18.2905 101.44 18.6326C101.473 18.975 101.435 19.3206 101.327 19.6472C101.219 19.9738 101.045 20.2741 100.815 20.5289C100.585 20.7837 100.305 20.9873 99.9923 21.1267C99.6796 21.266 99.3413 21.338 98.9992 21.338C98.6572 21.338 98.3189 21.266 98.0061 21.1267C97.6934 20.9873 97.413 20.7837 97.1832 20.5289C96.9533 20.2741 96.779 19.9738 96.6714 19.6472C96.5638 19.3206 96.5253 18.975 96.5584 18.6326ZM100.389 18.6326C100.389 17.5042 99.885 16.8444 99.0006 16.8444C98.1128 16.8444 97.6134 17.5042 97.6134 18.6326C97.6134 19.7699 98.1129 20.4247 99.0006 20.4247C99.885 20.4247 100.389 19.7654 100.389 18.6326Z" fill="#2D2D2D"/>
<path d="M102.812 16.0319H103.796V16.8588H103.872C104.001 16.5618 104.22 16.3128 104.497 16.1466C104.773 15.9803 105.095 15.9051 105.416 15.9314C105.668 15.9124 105.921 15.9505 106.156 16.0431C106.391 16.1357 106.603 16.2803 106.775 16.4663C106.947 16.6522 107.075 16.8747 107.15 17.1172C107.225 17.3598 107.245 17.6162 107.208 17.8674V21.2371H106.186V18.1254C106.186 17.2889 105.825 16.8729 105.07 16.8729C104.899 16.8649 104.728 16.8942 104.569 16.9587C104.411 17.0232 104.268 17.1215 104.15 17.2468C104.033 17.3721 103.944 17.5214 103.889 17.6846C103.835 17.8477 103.816 18.0208 103.834 18.192V21.2372H102.812V16.0319Z" fill="#2D2D2D"/>
<path d="M112.977 14.7363V16.056H114.098V16.9213H112.977V19.5979C112.977 20.1432 113.2 20.3819 113.709 20.3819C113.839 20.3815 113.969 20.3736 114.098 20.3582V21.2139C113.915 21.2469 113.729 21.2645 113.542 21.2664C112.407 21.2664 111.954 20.8645 111.954 19.8609V16.9213H111.133V16.056H111.954V14.7363H112.977Z" fill="#2D2D2D"/>
<path d="M115.496 14H116.508V16.8685H116.589C116.725 16.5687 116.949 16.3184 117.232 16.1515C117.514 15.9846 117.841 15.9094 118.167 15.9361C118.418 15.9223 118.668 15.9644 118.901 16.0592C119.133 16.1541 119.342 16.2994 119.512 16.4847C119.682 16.6701 119.81 16.8909 119.885 17.1315C119.961 17.3721 119.983 17.6265 119.95 17.8766V21.2373H118.927V18.13C118.927 17.2986 118.542 16.8775 117.821 16.8775C117.645 16.8631 117.468 16.8873 117.303 16.9487C117.138 17.01 116.988 17.1069 116.864 17.2326C116.74 17.3583 116.644 17.5097 116.585 17.6764C116.525 17.843 116.502 18.0207 116.517 18.1972V21.2373H115.496L115.496 14Z" fill="#2D2D2D"/>
<path d="M125.905 19.832C125.766 20.3078 125.466 20.7193 125.056 20.9946C124.646 21.2699 124.153 21.3914 123.663 21.338C123.322 21.347 122.983 21.2813 122.67 21.1455C122.357 21.0096 122.076 20.8068 121.849 20.5512C121.622 20.2956 121.452 19.9932 121.353 19.6651C121.253 19.337 121.225 18.9911 121.272 18.6512C121.227 18.3103 121.255 17.9636 121.354 17.6346C121.453 17.3055 121.622 17.0017 121.848 16.7438C122.074 16.486 122.353 16.28 122.665 16.1399C122.978 15.9998 123.316 15.9288 123.658 15.9317C125.098 15.9317 125.967 16.9213 125.967 18.5558V18.9143H122.312V18.9718C122.296 19.1629 122.32 19.3551 122.383 19.5363C122.445 19.7175 122.544 19.8837 122.674 20.0241C122.803 20.1645 122.961 20.276 123.136 20.3516C123.311 20.4272 123.5 20.4652 123.691 20.4631C123.935 20.4926 124.183 20.4483 124.402 20.3359C124.621 20.2236 124.802 20.0482 124.922 19.832L125.905 19.832ZM122.312 18.1545H124.926C124.939 17.9798 124.916 17.8043 124.857 17.6394C124.799 17.4744 124.706 17.3235 124.586 17.1965C124.466 17.0696 124.321 16.9692 124.161 16.902C124 16.8347 123.827 16.802 123.653 16.8061C123.476 16.8038 123.301 16.8372 123.137 16.9042C122.973 16.9711 122.825 17.0704 122.7 17.1961C122.575 17.3217 122.476 17.4713 122.41 17.6359C122.343 17.8005 122.31 17.9768 122.312 18.1545Z" fill="#2D2D2D"/>
<path d="M31.8214 26.5491C31.8377 25.2842 32.1721 24.044 32.7936 22.9439C33.4152 21.8438 34.3036 20.9195 35.3763 20.2569C34.6948 19.2793 33.7959 18.4747 32.7507 17.907C31.7056 17.3394 30.5432 17.0245 29.3557 16.9871C26.8226 16.72 24.3669 18.5099 23.076 18.5099C21.7602 18.5099 19.7728 17.0137 17.6326 17.0579C16.2484 17.1028 14.8993 17.5072 13.7168 18.2317C12.5343 18.9561 11.5588 19.976 10.8853 21.1918C7.96801 26.2661 10.1441 33.7236 12.9387 37.8253C14.3369 39.8338 15.971 42.0773 18.1092 41.9977C20.2016 41.9105 20.983 40.6574 23.5086 40.6574C26.0109 40.6574 26.744 41.9977 28.9256 41.9472C31.1708 41.9105 32.5854 39.9298 33.9345 37.9023C34.9392 36.4711 35.7122 34.8895 36.2251 33.2158C34.9207 32.6615 33.8075 31.7338 33.0244 30.5483C32.2413 29.3628 31.823 27.9719 31.8214 26.5491Z" fill="#2D2D2D"/>
<path d="M27.702 14.2898C28.9262 12.8135 29.5293 10.9159 29.3833 9C27.513 9.19734 25.7854 10.0953 24.5447 11.515C23.9381 12.2086 23.4735 13.0155 23.1775 13.8895C22.8814 14.7636 22.7598 15.6877 22.8195 16.609C23.7549 16.6187 24.6804 16.415 25.5261 16.0132C26.3719 15.6115 27.1158 15.0222 27.702 14.2898Z" fill="#2D2D2D"/>
</svg>
