<svg width="161" height="30" viewBox="0 0 161 30" fill="none" xmlns="http://www.w3.org/2000/svg">
<g clip-path="url(#clip0_469_4621)">
<path d="M46.3539 30C46.3539 30 23.18 30 14.9328 30C6.68565 30 0 23.2843 0 15C0 6.71577 6.68565 5.7047e-05 14.9328 5.7047e-05C17.3609 5.7047e-05 22.9069 -0.0871921 27.6879 6.56254C31.7322 12.1876 35.3902 20.3256 36.3987 21.875C41.6874 30 46.3539 30 46.3539 30Z" fill="#E33737"/>
<path d="M29.8655 2.04702e-05C29.8655 2.04702e-05 53.0394 2.04702e-05 61.2866 2.04702e-05C69.5338 2.04702e-05 76.2194 6.71573 76.2194 15C76.2194 23.2842 69.5338 29.9999 61.2866 29.9999C58.8585 29.9999 53.3125 30.0872 48.5315 23.4375C44.4872 17.8124 40.8292 9.67437 39.8207 8.12498C34.532 2.09808e-05 29.8655 2.04702e-05 29.8655 2.04702e-05Z" fill="white"/>
<path d="M91.5384 11.9828L89.3457 7.98494H88.7299V11.9828H86.1617V1.3923H90.4721C91.3031 1.3923 92.009 1.53813 92.5897 1.8298C93.1804 2.12146 93.6209 2.52376 93.9113 3.03669C94.2017 3.53956 94.3468 4.10278 94.3468 4.72634C94.3468 5.43036 94.1466 6.05895 93.7461 6.61211C93.3556 7.16527 92.7749 7.5575 92.0039 7.78883L94.437 11.9828H91.5384ZM88.7299 6.15952H90.3219C90.7924 6.15952 91.1429 6.04386 91.3732 5.81254C91.6135 5.58122 91.7336 5.25435 91.7336 4.83194C91.7336 4.42964 91.6135 4.11284 91.3732 3.88152C91.1429 3.65019 90.7924 3.53453 90.3219 3.53453H88.7299V6.15952Z" fill="white"/>
<path d="M100.254 3.4591V5.60134H103.694V7.59271H100.254V9.91597H104.144V11.9828H97.6861V1.3923H104.144V3.4591H100.254Z" fill="white"/>
<path d="M111.488 1.3923C112.6 1.3923 113.571 1.61357 114.402 2.05609C115.233 2.49862 115.874 3.12218 116.324 3.92677C116.785 4.72131 117.015 5.64156 117.015 6.68754C117.015 7.72345 116.785 8.64371 116.324 9.4483C115.874 10.2529 115.228 10.8765 114.387 11.319C113.556 11.7615 112.59 11.9828 111.488 11.9828H107.539V1.3923H111.488ZM111.323 9.75002C112.294 9.75002 113.05 9.4835 113.591 8.95046C114.132 8.41741 114.402 7.66311 114.402 6.68754C114.402 5.71197 114.132 4.95263 113.591 4.40953C113.05 3.86643 112.294 3.59488 111.323 3.59488H110.107V9.75002H111.323Z" fill="white"/>
<path d="M128.213 4.80177C128.213 5.41527 128.072 5.97849 127.792 6.49142C127.512 6.99429 127.081 7.40161 126.5 7.71339C125.92 8.02517 125.199 8.18106 124.338 8.18106H122.746V11.9828H120.178V1.3923H124.338C125.179 1.3923 125.89 1.53813 126.47 1.8298C127.051 2.12146 127.487 2.52376 127.777 3.03669C128.067 3.54962 128.213 4.13798 128.213 4.80177ZM124.143 6.12935C124.633 6.12935 124.999 6.01369 125.239 5.78237C125.479 5.55105 125.599 5.22418 125.599 4.80177C125.599 4.37936 125.479 4.05249 125.239 3.82117C124.999 3.58985 124.633 3.47419 124.143 3.47419H122.746V6.12935H124.143Z" fill="white"/>
<path d="M133.845 1.3923V11.9828H131.277V1.3923H133.845Z" fill="white"/>
<path d="M140.001 9.9914H143.366V11.9828H137.433V1.3923H140.001V9.9914Z" fill="white"/>
<path d="M148.886 9.9914H152.25V11.9828H146.318V1.3923H148.886V9.9914Z" fill="white"/>
<path d="M92.83 18.0625V19.1789H89.9764V28.5775H88.6097V19.1789H85.7412V18.0625H92.83Z" fill="white"/>
<path d="M105.566 19.1789V22.6939H109.381V23.8254H105.566V27.4461H109.831V28.5775H104.199V18.0474H109.831V19.1789H105.566Z" fill="white"/>
<path d="M127.774 26.2392H123.208L122.367 28.5775H120.925L124.71 18.1228H126.287L130.057 28.5775H128.615L127.774 26.2392ZM127.383 25.1228L125.491 19.8125L123.599 25.1228H127.383Z" fill="white"/>
<path d="M152.011 18.1379V28.5775H150.645V20.7931L147.19 28.5775H146.229L142.76 20.778V28.5775H141.393V18.1379H142.865L146.71 26.7672L150.555 18.1379H152.011Z" fill="white"/>
</g>
<g clip-path="url(#clip1_469_4621)">
<path d="M45.3539 30C45.3539 30 22.18 30 13.9328 30C5.68565 30 -1 23.2843 -1 15C-1 6.71577 5.68565 5.7047e-05 13.9328 5.7047e-05C16.3609 5.7047e-05 21.9069 -0.0871921 26.6879 6.56254C30.7322 12.1876 34.3902 20.3256 35.3987 21.875C40.6874 30 45.3539 30 45.3539 30Z" fill="#2D2D2D"/>
<path d="M28.8655 2.04702e-05C28.8655 2.04702e-05 52.0394 2.04702e-05 60.2866 2.04702e-05C68.5338 2.04702e-05 75.2194 6.71573 75.2194 15C75.2194 23.2842 68.5338 29.9999 60.2866 29.9999C57.8585 29.9999 52.3125 30.0872 47.5315 23.4375C43.4872 17.8124 39.8292 9.67437 38.8207 8.12498C33.532 2.09808e-05 28.8655 2.04702e-05 28.8655 2.04702e-05Z" fill="#2D2D2D"/>
<path d="M90.5384 11.9828L88.3457 7.98494H87.7299V11.9828H85.1617V1.3923H89.4721C90.3031 1.3923 91.009 1.53813 91.5897 1.8298C92.1804 2.12146 92.6209 2.52376 92.9113 3.03669C93.2017 3.53956 93.3468 4.10278 93.3468 4.72634C93.3468 5.43036 93.1466 6.05895 92.7461 6.61211C92.3556 7.16527 91.7749 7.5575 91.0039 7.78883L93.437 11.9828H90.5384ZM87.7299 6.15952H89.3219C89.7924 6.15952 90.1429 6.04386 90.3732 5.81254C90.6135 5.58122 90.7336 5.25435 90.7336 4.83194C90.7336 4.42964 90.6135 4.11284 90.3732 3.88152C90.1429 3.65019 89.7924 3.53453 89.3219 3.53453H87.7299V6.15952Z" fill="#2D2D2D"/>
<path d="M99.2543 3.4591V5.60134H102.694V7.59271H99.2543V9.91597H103.144V11.9828H96.6861V1.3923H103.144V3.4591H99.2543Z" fill="#2D2D2D"/>
<path d="M110.488 1.3923C111.6 1.3923 112.571 1.61357 113.402 2.05609C114.233 2.49862 114.874 3.12218 115.324 3.92677C115.785 4.72131 116.015 5.64156 116.015 6.68754C116.015 7.72345 115.785 8.64371 115.324 9.4483C114.874 10.2529 114.228 10.8765 113.387 11.319C112.556 11.7615 111.59 11.9828 110.488 11.9828H106.539V1.3923H110.488ZM110.323 9.75002C111.294 9.75002 112.05 9.4835 112.591 8.95046C113.132 8.41741 113.402 7.66311 113.402 6.68754C113.402 5.71197 113.132 4.95263 112.591 4.40953C112.05 3.86643 111.294 3.59488 110.323 3.59488H109.107V9.75002H110.323Z" fill="#2D2D2D"/>
<path d="M127.213 4.80177C127.213 5.41527 127.072 5.97849 126.792 6.49142C126.512 6.99429 126.081 7.40161 125.5 7.71339C124.92 8.02517 124.199 8.18106 123.338 8.18106H121.746V11.9828H119.178V1.3923H123.338C124.179 1.3923 124.89 1.53813 125.47 1.8298C126.051 2.12146 126.487 2.52376 126.777 3.03669C127.067 3.54962 127.213 4.13798 127.213 4.80177ZM123.143 6.12935C123.633 6.12935 123.999 6.01369 124.239 5.78237C124.479 5.55105 124.599 5.22418 124.599 4.80177C124.599 4.37936 124.479 4.05249 124.239 3.82117C123.999 3.58985 123.633 3.47419 123.143 3.47419H121.746V6.12935H123.143Z" fill="#2D2D2D"/>
<path d="M132.845 1.3923V11.9828H130.277V1.3923H132.845Z" fill="#2D2D2D"/>
<path d="M139.001 9.9914H142.366V11.9828H136.433V1.3923H139.001V9.9914Z" fill="#2D2D2D"/>
<path d="M147.886 9.9914H151.25V11.9828H145.318V1.3923H147.886V9.9914Z" fill="#2D2D2D"/>
<path d="M91.83 18.0625V19.1789H88.9764V28.5775H87.6097V19.1789H84.7412V18.0625H91.83Z" fill="#2D2D2D"/>
<path d="M104.566 19.1789V22.6939H108.381V23.8254H104.566V27.4461H108.831V28.5775H103.199V18.0474H108.831V19.1789H104.566Z" fill="#2D2D2D"/>
<path d="M126.774 26.2392H122.208L121.367 28.5775H119.925L123.71 18.1228H125.287L129.057 28.5775H127.615L126.774 26.2392ZM126.383 25.1228L124.491 19.8125L122.599 25.1228H126.383Z" fill="#2D2D2D"/>
<path d="M151.011 18.1379V28.5775H149.645V20.7931L146.19 28.5775H145.229L141.76 20.778V28.5775H140.393V18.1379H141.865L145.71 26.7672L149.555 18.1379H151.011Z" fill="#2D2D2D"/>
</g>
<defs>
<clipPath id="clip0_469_4621">
<rect width="78" height="30" fill="white"/>
</clipPath>
<clipPath id="clip1_469_4621">
<rect width="79" height="30" fill="white" transform="translate(82)"/>
</clipPath>
</defs>
</svg>
